<svg width="24" height="18" viewBox="0 0 24 18" fill="none" xmlns="http://www.w3.org/2000/svg">
<path fill-rule="evenodd" clip-rule="evenodd" d="M0.75 0.75C0.335786 0.75 0 1.08579 0 1.5V16.5C0 16.9142 0.335786 17.25 0.75 17.25H23.25C23.6642 17.25 24 16.9142 24 16.5V1.5C24 1.08579 23.6642 0.75 23.25 0.75H0.75ZM1.5 3.187V15.75H22.5V3.18716L16.8838 7.06L20.0091 9.94929C20.3133 10.2305 20.3319 10.705 20.0507 11.0091C19.7696 11.3133 19.295 11.3319 18.9909 11.0507L15.6182 7.93275L13.7932 9.19119C13.2662 9.55499 12.6405 9.75007 12.0001 9.75007C11.3597 9.75007 10.7344 9.55523 10.2073 9.19144L8.38194 7.93267L5.00912 11.0507C4.70497 11.3319 4.23046 11.3133 3.94928 11.0091C3.6681 10.705 3.68672 10.2305 3.99088 9.94929L7.11631 7.05992L1.5 3.187ZM21.2168 2.25H2.78348L11.0589 7.95658C11.3355 8.14755 11.664 8.25007 12.0001 8.25007C12.3362 8.25007 12.6644 8.14779 12.941 7.95682L21.2168 2.25Z" fill="#ffb300"/>
</svg>
